<?xml version="1.0" encoding="utf-8"?>
<svg viewBox="-965.09 -320.186 2401.308 2396.567" style="shape-rendering: geometricprecision;" xmlns="http://www.w3.org/2000/svg">
  <g transform="matrix(1, 0, 0, 1, -1089.617554, -1158.991821)" style="">
    <title>bacground</title>
    <path style="opacity: 0.996;" fill="#1d1d1b" d="M 2502.426 2036.888 C 2502.426 2688.811 1973.938 3217.3 1322.014 3217.3 C 670.09 3217.3 141.602 2688.811 141.602 2036.888 C 141.602 1384.964 670.09 856.476 1322.014 856.476 C 1973.938 856.476 2502.426 1384.964 2502.426 2036.888 Z"/>
  </g>
  <g transform="matrix(1, 0, 0, 1, -1089.617554, -1158.991821)" style="">
    <title>Ground</title>
    <path style="opacity: 1;" fill="#cdd7d1" d="M 555.5 2049 C 559.127 2055.09 562.627 2061.25 566 2067.5 C 565.57 2088.27 568.237 2108.6 574 2128.5 C 580.52 2137.3 589.354 2141.63 600.5 2141.5 C 600.748 2147.24 601.581 2152.91 603 2158.5 C 608.29 2176.33 612.957 2194.33 617 2212.5 C 618.637 2221.87 618.804 2231.2 617.5 2240.5 C 617.453 2243.57 616.953 2246.57 616 2249.5 C 608.447 2254.36 606.447 2261.02 610 2269.5 C 611.626 2272.13 613.626 2274.46 616 2276.5 C 616.667 2279.17 616.667 2281.83 616 2284.5 C 611.464 2303.78 605.13 2322.44 597 2340.5 C 592.881 2355.91 591.547 2371.58 593 2387.5 C 593.7 2391.07 595.533 2393.9 598.5 2396 C 606.723 2397.44 615.057 2397.94 623.5 2397.5 C 621.42 2448.34 631.587 2496.67 654 2542.5 C 664.918 2562.79 679.084 2580.62 696.5 2596 C 680.352 2610.47 666.852 2626.97 656 2645.5 C 648.493 2658.52 644.327 2672.52 643.5 2687.5 C 642.835 2689.7 642.168 2692.03 641.5 2694.5 C 628.637 2695.77 617.304 2700.6 607.5 2709 C 593.618 2719.62 583.785 2733.12 578 2749.5 C 575.896 2770.06 585.23 2779.4 606 2777.5 C 622.093 2775.42 638.26 2774.08 654.5 2773.5 C 667.992 2773.57 681.325 2775.07 694.5 2778 C 728.245 2787.91 760.912 2800.58 792.5 2816 C 813.12 2825.21 834.454 2832.21 856.5 2837 C 888.087 2843.38 919.754 2849.38 951.5 2855 C 968.804 2856.53 986.138 2856.86 1003.5 2856 C 1021.5 2853.67 1039.5 2851.33 1057.5 2849 C 1073.83 2848.33 1090.17 2848.33 1106.5 2849 C 1140.01 2853.9 1173.68 2857.23 1207.5 2859 C 1269.56 2866.94 1329.56 2882.61 1387.5 2906 C 1415.17 2918.78 1443.17 2930.78 1471.5 2942 C 1502.75 2952.42 1534.75 2955.42 1567.5 2951 C 1594.91 2948.2 1621.91 2943.2 1648.5 2936 C 1676.83 2927.67 1705.17 2919.33 1733.5 2911 C 1767.75 2903.28 1802.08 2895.95 1836.5 2889 C 1883.17 2878.16 1928.17 2862.5 1971.5 2842 C 2014.66 2825.39 2057.66 2808.39 2100.5 2791 C 2113.44 2786.85 2126.44 2782.85 2139.5 2779 C 2151.21 2775.57 2160.71 2769.07 2168 2759.5 C 2169.42 2754.57 2169.75 2749.57 2169 2744.5 C 2165.11 2737.55 2159.94 2731.72 2153.5 2727 C 2140.93 2718.43 2128.93 2709.1 2117.5 2699 C 2078.36 2672.59 2036.7 2650.59 1992.5 2633 C 1963.04 2622.41 1932.71 2618.74 1901.5 2622 C 1820.95 2628.62 1740.61 2637.29 1660.5 2648 C 1566.02 2661.49 1474.35 2685.49 1385.5 2720 C 1365.67 2726.43 1345.34 2729.1 1324.5 2728 C 1271.1 2723.3 1217.6 2720.14 1164 2718.5 C 1119.39 2720.04 1074.89 2723.21 1030.5 2728 C 996.238 2730.16 962.238 2728.16 928.5 2722 C 868.936 2710.01 809.269 2699.51 749.5 2690.5 C 753.291 2687.88 756.957 2685.05 760.5 2682 C 769.369 2674.13 777.869 2665.96 786 2657.5 C 870.454 2698.33 958.621 2708.83 1050.5 2689 C 1077.97 2682.98 1105.31 2676.31 1132.5 2669 C 1156.42 2662.03 1178.75 2651.87 1199.5 2638.5 C 1223.67 2654.49 1248.01 2670.33 1272.5 2686 C 1292.77 2695.94 1313.44 2696.94 1334.5 2689 C 1346.5 2680.24 1351.5 2668.4 1349.5 2653.5 C 1564.85 2605.44 1780.18 2557.27 1995.5 2509 C 2000.83 2508.67 2006.17 2508.33 2011.5 2508 C 2113.74 2487.36 2215.41 2464.36 2316.5 2439 C 2320.79 2435.47 2322.29 2430.97 2321 2425.5 C 2300.52 2330.91 2280.35 2236.24 2260.5 2141.5 C 2252.3 2104.33 2244.3 2066.99 2236.5 2029.5 C 2325.798 2029.5 2415.103 2029.5 2504.403 2029.5 C 2504.418 2031.961 2504.426 2034.424 2504.426 2036.888 C 2504.426 2688.811 1975.938 3217.3 1324.014 3217.3 C 675.981 3217.3 149.915 2695.101 143.658 2048.548 C 344.149 2048.698 523.414 2048.865 555.5 2049 Z">
      <title>Filling</title>
    </path>
    <path style="opacity:1" fill="#717672" d="M 328.5,2088.5 C 335.841,2088.33 343.174,2088.5 350.5,2089C 353.167,2091.33 353.167,2093.67 350.5,2096C 343.167,2096.67 335.833,2096.67 328.5,2096C 327.221,2093.5 327.221,2091 328.5,2088.5 Z"/>
    <path style="opacity:1" fill="#737874" d="M 184.5,2107.5 C 193.173,2107.33 201.84,2107.5 210.5,2108C 214.5,2110.67 214.5,2113.33 210.5,2116C 201.833,2116.67 193.167,2116.67 184.5,2116C 181.899,2113.17 181.899,2110.34 184.5,2107.5 Z"/>
    <path style="opacity:1" fill="#8b918d" d="M 2377.5,2138.5 C 2382.51,2138.33 2387.51,2138.5 2392.5,2139C 2393.59,2141.06 2393.76,2143.23 2393,2145.5C 2385.42,2146.31 2377.92,2147.48 2370.5,2149C 2368.33,2147.14 2367.99,2144.97 2369.5,2142.5C 2372.15,2140.96 2374.81,2139.63 2377.5,2138.5 Z"/>
    <path style="opacity:1" fill="#a6aea9" d="M 643.5 2687.5 C 641.837 2700.99 647.504 2709.49 660.5 2713 C 693.478 2718.51 723.145 2711.01 749.5 2690.5 C 809.269 2699.51 868.936 2710.01 928.5 2722 C 962.238 2728.16 996.238 2730.16 1030.5 2728 C 1074.89 2723.21 1119.39 2720.04 1164 2718.5 C 1217.6 2720.14 1271.1 2723.3 1324.5 2728 C 1345.34 2729.1 1365.67 2726.43 1385.5 2720 C 1474.35 2685.49 1566.02 2661.49 1660.5 2648 C 1740.61 2637.29 1820.95 2628.62 1901.5 2622 C 1932.71 2618.74 1963.04 2622.41 1992.5 2633 C 2036.7 2650.59 2078.36 2672.59 2117.5 2699 C 2128.93 2709.1 2140.93 2718.43 2153.5 2727 C 2159.94 2731.72 2165.11 2737.55 2169 2744.5 C 2169.75 2749.57 2169.42 2754.57 2168 2759.5 C 2160.71 2769.07 2151.21 2775.57 2139.5 2779 C 2126.44 2782.85 2113.44 2786.85 2100.5 2791 C 2057.66 2808.39 2014.66 2825.39 1971.5 2842 C 1928.17 2862.5 1883.17 2878.16 1836.5 2889 C 1802.08 2895.95 1767.75 2903.28 1733.5 2911 C 1705.17 2919.33 1676.83 2927.67 1648.5 2936 C 1621.91 2943.2 1594.91 2948.2 1567.5 2951 C 1534.75 2955.42 1502.75 2952.42 1471.5 2942 C 1443.17 2930.78 1415.17 2918.78 1387.5 2906 C 1329.56 2882.61 1269.56 2866.94 1207.5 2859 C 1173.68 2857.23 1140.01 2853.9 1106.5 2849 C 1090.17 2848.33 1073.83 2848.33 1057.5 2849 C 1039.5 2851.33 1021.5 2853.67 1003.5 2856 C 986.138 2856.86 968.804 2856.53 951.5 2855 C 919.754 2849.38 888.087 2843.38 856.5 2837 C 834.454 2832.21 813.12 2825.21 792.5 2816 C 760.912 2800.58 728.245 2787.91 694.5 2778 C 681.325 2775.07 667.992 2773.57 654.5 2773.5 C 638.26 2774.08 622.093 2775.42 606 2777.5 C 585.23 2779.4 575.896 2770.06 578 2749.5 C 583.785 2733.12 593.618 2719.62 607.5 2709 C 617.304 2700.6 628.637 2695.77 641.5 2694.5 C 642.168 2692.03 642.835 2689.7 643.5 2687.5 Z">
      <title>shadow</title>
    </path>
    <path style="opacity:1" fill="#21221f" d="M 586.5 2677.5 C 593.655 2678.94 600.988 2679.78 608.5 2680 C 612.989 2685.38 611.989 2689.38 605.5 2692 C 597.834 2693.73 591 2692.23 585 2687.5 C 584.037 2683.85 584.537 2680.52 586.5 2677.5 Z"/>
    <path style="opacity:1" fill="#717672" d="M 1664.5 2723.5 C 1682.18 2723.4 1699.85 2723.9 1717.5 2725 C 1718.83 2727.33 1718.83 2729.67 1717.5 2732 C 1701.5 2731.9 1685.5 2731.9 1669.5 2732 C 1664.03 2732.53 1658.69 2733.7 1653.5 2735.5 C 1649.99 2734.5 1648.82 2732.17 1650 2728.5 C 1654.78 2726.35 1659.61 2724.68 1664.5 2723.5 Z"/>
    <path style="opacity:1" fill="#727773" d="M 1533.5 2768.5 C 1537.01 2767.99 1540.17 2768.66 1543 2770.5 C 1543.9 2773.03 1543.4 2775.19 1541.5 2777 C 1525.54 2778.96 1509.54 2779.96 1493.5 2780 C 1490.07 2777.63 1489.73 2774.97 1492.5 2772 C 1506.4 2771.77 1520.06 2770.6 1533.5 2768.5 Z"/>
    <path style="opacity:1" fill="#737874" d="M 1787.5 2810.5 C 1806.5 2810.33 1825.5 2810.5 1844.5 2811 C 1847.4 2814.16 1847.07 2816.82 1843.5 2819 C 1825.17 2819.67 1806.83 2819.67 1788.5 2819 C 1784.87 2816.65 1784.53 2813.82 1787.5 2810.5 Z"/>
    <path style="opacity:1" fill="#8a908c" d="M 1139.5 2877.5 C 1152.39 2879.7 1165.39 2880.86 1178.5 2881 C 1179.98 2883.59 1179.65 2885.93 1177.5 2888 C 1164.62 2889.31 1151.96 2888.31 1139.5 2885 C 1138.22 2882.5 1138.22 2880 1139.5 2877.5 Z"/>
    <path style="opacity:1" fill="#8c938e" d="M 1348.5 2918.5 C 1360.84 2918.33 1373.17 2918.5 1385.5 2919 C 1388.31 2920.31 1389.14 2922.47 1388 2925.5 C 1387.25 2926.13 1386.42 2926.63 1385.5 2927 C 1373.17 2927.67 1360.83 2927.67 1348.5 2927 C 1345.9 2924.17 1345.9 2921.34 1348.5 2918.5 Z"/>
    <path style="opacity:1" fill="#20201e" d="M 584.5 2483.5 C 590.101 2482.06 593.434 2484.06 594.5 2489.5 C 594.594 2491.91 593.594 2493.74 591.5 2495 C 588.529 2495.79 585.529 2496.46 582.5 2497 C 564.193 2498.52 545.86 2498.85 527.5 2498 C 522.799 2494.22 522.466 2490.22 526.5 2486 C 542.5 2485.67 558.5 2485.33 574.5 2485 C 578.025 2484.82 581.359 2484.32 584.5 2483.5 Z"/>
    <path style="opacity:1" fill="#898f8b" d="M 2381.5 2377.5 C 2390.51 2377.33 2399.51 2377.5 2408.5 2378 C 2411.17 2380.33 2411.17 2382.67 2408.5 2385 C 2399.5 2385.67 2390.5 2385.67 2381.5 2385 C 2378.91 2382.51 2378.91 2380.01 2381.5 2377.5 Z"/>
    <path style="opacity:1" fill="#727773" d="M 231.5,2160.5 C 234.794,2160.26 237.794,2161.09 240.5,2163C 246.5,2163.33 252.5,2163.67 258.5,2164C 261.634,2169.25 259.967,2171.92 253.5,2172C 244.69,2173.9 236.857,2172.07 230,2166.5C 229.252,2164.16 229.752,2162.16 231.5,2160.5 Z"/>
  </g>
  <g transform="matrix(1, 0, 0, 1, -1089.617554, -1158.991821)">
    <title>Wall</title>
    <path style="opacity: 1; fill: rgb(205, 184, 184);" d="M 2215.569 1933.321 C 2189.38 1806.17 2181.05 1768.17 2171.5 1730.5 C 2168.71 1727.36 2165.21 1726.02 2161 1726.5 C 2143.074 1727.147 2125.147 1727.681 2107.217 1728.11 C 2107.217 1728.146 2107.217 1728.182 2107.217 1728.218 C 2046.867 1729.358 1887.5 1734.5 1887.5 1734.5 L 1842.5 1738 C 1842.5 1738 1467.81 1826.259 1401 1840.501 C 1399.25 1826.683 1397.75 1812.847 1396.5 1798.992 C 1434.76 1803.254 1465.92 1791.566 1490 1763.94 C 1508.54 1740.796 1520.54 1714.968 1526 1686.455 C 1530.826 1617.5 1530.163 1617.5 1529.5 1617.5 C 1528.17 1574.19 1517.84 1533.19 1498.5 1494.5 C 1495.19 1487.89 1491.36 1481.56 1487 1475.5 C 1486.999 1475.416 1486.999 1475.333 1486.998 1475.249 C 1486.981 1475.224 1486.964 1475.199 1486.946 1475.173 C 1485.493 1473.023 1479.267 1463.182 1464.5 1446.5 C 1439.07 1416.79 1406.73 1402.29 1367.5 1403 C 1335.38 1407.81 1310.21 1423.64 1292 1450.5 C 1285.26 1460.81 1279.43 1471.64 1274.5 1483 C 1251.13 1489.56 1229.3 1499.39 1209 1512.5 C 1153.33 1469.71 1090.17 1446.21 1019.5 1442 C 984.53 1439.98 949.53 1439.15 914.5 1439.5 C 911.008 1420.12 902.008 1403.95 887.5 1391 C 868.652 1380.3 851.818 1382.8 837 1398.5 C 828.802 1412.67 824.968 1428.01 825.5 1444.5 C 762.704 1450.09 702.371 1465.26 644.5 1490 C 621.526 1500.48 599.859 1512.98 579.5 1527.5 C 569.063 1515.81 558.063 1504.64 546.5 1494 C 519.762 1475.14 495.262 1477.64 473 1501.5 C 460.311 1519.28 456.311 1538.94 461 1560.5 C 465.129 1581.6 474.629 1599.76 489.5 1615 C 493.852 1618.03 498.185 1621.03 502.5 1624 C 477.48 1667.73 461.646 1714.56 455 1764.5 C 452.01 1798.59 455.677 1831.93 466 1864.5 C 476.279 1896.38 489.279 1927.05 505 1956.5 C 517.858 1980.22 530.691 2003.89 543.5 2027.5 C 513.892 2027.5 332.18 2027.582 143.637 2027.667 C 148.592 1379.988 675.166 856.476 1324.014 856.476 C 1966.449 856.476 2489.015 1369.691 2504.091 2008.5 C 2382.034 2008.5 2275.226 2008.5 2231.5 2008.5 C 2219.15 1947.42 2217.049 1938.241 2215.569 1933.321 Z">
      <title>Filling</title>
    </path>
    <path style="opacity: 1; transform-box: fill-box; transform-origin: 50% 50%; fill: rgb(197, 163, 163);" d="M 1783.841 1631.562 C 1811.754 1631.405 1839.652 1632.194 1867.519 1633.931 C 1869.618 1637.609 1869.618 1641.304 1867.519 1644.982 C 1842.257 1644.825 1816.996 1644.825 1791.735 1644.982 C 1783.099 1645.819 1774.668 1647.666 1766.474 1650.508 C 1760.932 1648.93 1759.085 1645.251 1760.948 1639.457 C 1768.495 1636.062 1776.12 1633.425 1783.841 1631.562 Z" transform="matrix(-0.999949, 0.010148, -0.010148, -0.999949, -0.000314, 0.000099)"/>
    <path style="opacity: 1; transform-box: fill-box; transform-origin: 50% 50%; fill: rgb(197, 163, 163);" d="M 1359.248 1279.093 C 1364.79 1278.288 1369.779 1279.345 1374.247 1282.25 C 1375.668 1286.245 1374.879 1289.655 1371.879 1292.513 C 1346.681 1295.607 1321.42 1297.186 1296.095 1297.249 C 1290.68 1293.508 1290.143 1289.308 1294.516 1284.619 C 1316.462 1284.256 1338.029 1282.408 1359.248 1279.093 Z" transform="matrix(-0.999949, 0.010148, -0.010148, -0.999949, -0.000004, -0.000004)"/>
    <path style="opacity: 1; transform-box: fill-box; transform-origin: 50% 50%; fill: rgb(197, 163, 163);" d="M 640.152 1243.023 C 670.15 1242.755 700.147 1243.023 730.145 1243.813 C 734.724 1248.802 734.203 1253.001 728.566 1256.443 C 699.626 1257.501 670.671 1257.501 641.731 1256.443 C 636 1252.733 635.463 1248.265 640.152 1243.023 Z" transform="matrix(-0.999949, 0.010148, -0.010148, -0.999949, 0.000122, 0.000041)"/>
    <path style="opacity: 1; transform-box: fill-box; transform-origin: 50% 50%; fill: rgb(197, 163, 163);" d="M 1979.516 1376.521 C 1999.867 1379.995 2020.392 1381.826 2041.09 1382.047 C 2043.427 1386.137 2042.906 1389.831 2039.512 1393.099 C 2019.176 1395.167 1999.188 1393.589 1979.516 1388.363 C 1977.495 1384.416 1977.495 1380.469 1979.516 1376.521 Z" transform="matrix(-0.999949, 0.010148, -0.010148, -0.999949, -0.000122, 0.00013)"/>
    <path style="opacity: 1; transform-box: fill-box; transform-origin: 50% 50%; fill: rgb(197, 163, 163);" d="M 1379.117 1034.881 C 1398.599 1034.612 1418.066 1034.881 1437.533 1035.67 C 1441.97 1037.738 1443.28 1041.148 1441.48 1045.932 C 1440.296 1046.927 1438.986 1047.716 1437.533 1048.301 C 1418.066 1049.358 1398.584 1049.358 1379.117 1048.301 C 1375.012 1043.833 1375.012 1039.364 1379.117 1034.881 Z" transform="matrix(-0.999949, 0.010148, -0.010148, -0.999949, -0.000268, 0.000158)"/>
  </g>
  <g transform="matrix(1, 0, 0, 1, -1089.617554, -1158.991821)" style="">
    <title>Face</title>
    <path style="opacity: 1; fill: rgb(0, 220, 255);" d="M 864.5,1405.5 C 870.716,1405.53 875.883,1407.86 880,1412.5C 886.081,1420.99 890.248,1430.33 892.5,1440.5C 885.5,1440.5 878.5,1440.5 871.5,1440.5C 871.34,1438.8 871.506,1437.13 872,1435.5C 875,1432.83 878,1430.17 881,1427.5C 882.141,1424.14 880.975,1422.14 877.5,1421.5C 874.932,1422.56 872.765,1424.23 871,1426.5C 870.667,1423.83 870.333,1421.17 870,1418.5C 868.89,1416.96 867.39,1416.3 865.5,1416.5C 865.058,1412.85 864.724,1409.18 864.5,1405.5 Z"/>
    <path style="opacity: 1; fill: rgb(0, 163, 219);" d="M 864.5,1405.5 C 864.724,1409.18 865.058,1412.85 865.5,1416.5C 864.542,1416.95 863.708,1417.62 863,1418.5C 862.699,1424.52 862.199,1430.52 861.5,1436.5C 861.686,1438.58 862.686,1440.08 864.5,1441C 858.477,1441.36 852.477,1441.86 846.5,1442.5C 846.596,1433.59 848.096,1424.92 851,1416.5C 853.586,1410.41 858.086,1406.74 864.5,1405.5 Z"/>
    <path style="opacity: 1;" fill="#ede9e4" d="M 1437.205 1594.688 C 1434.715 1581.828 1431.126 1569.282 1426.464 1557.048 C 1426.648 1551.464 1426.464 1545.881 1425.928 1540.32 C 1425.756 1531.286 1423.252 1522.921 1418.407 1515.226 C 1411.243 1506.161 1404.089 1497.107 1396.924 1488.042 C 1389.009 1477.753 1389.181 1467.82 1397.462 1458.243 C 1403.187 1457.542 1408.923 1457.542 1414.648 1458.243 C 1420.105 1458.734 1424.584 1460.993 1428.075 1465.039 C 1434.982 1478.83 1442.136 1492.423 1449.558 1505.816 C 1461.148 1531.349 1464.017 1557.842 1458.152 1585.278 C 1456.991 1590.84 1454.306 1595.545 1450.096 1599.394 C 1444.95 1600.156 1440.654 1598.588 1437.205 1594.688 Z"/>
    <path style="opacity: 1; fill: rgb(0, 163, 219);" d="M 770.5,1473.5 C 762.067,1479.23 753.4,1484.73 744.5,1490C 727.833,1504 711.167,1518 694.5,1532C 639.816,1581.21 610.816,1642.71 607.5,1716.5C 609.844,1764.94 615.677,1812.94 625,1860.5C 632.992,1885.12 643.325,1908.79 656,1931.5C 675.411,1967.81 700.244,1999.97 730.5,2028C 745.992,2039.25 761.658,2050.25 777.5,2061C 788.658,2068.24 800.325,2074.41 812.5,2079.5C 781.158,2080.97 749.825,2080.8 718.5,2079C 693.213,2075.89 667.879,2073.23 642.5,2071C 624.293,2067.43 605.96,2064.76 587.5,2063C 569.381,2029.26 550.881,1995.76 532,1962.5C 521.216,1942.6 511.216,1922.26 502,1901.5C 488.663,1871.82 479.997,1840.82 476,1808.5C 473.229,1770.34 478.562,1733.34 492,1697.5C 508.913,1651.98 532.247,1610.32 562,1572.5C 587.051,1546.22 616.217,1525.72 649.5,1511C 688.231,1493.4 728.564,1480.9 770.5,1473.5 Z"/>
    <path style="opacity: 1;" fill="#5a5a59" d="M 1315.5 1478.829 C 1326.33 1479.634 1337 1481.43 1347.5 1484.196 C 1385.12 1495.139 1411.45 1518.529 1426.5 1554.366 C 1430.84 1566.048 1434.18 1578.034 1436.5 1590.325 C 1438.4 1599.207 1439.4 1608.203 1439.5 1617.312 L 1438.5 1638.816 C 1432.47 1675.462 1412.8 1701.714 1379.5 1717.562 C 1377.26 1710.422 1373.93 1703.766 1369.5 1697.604 C 1380.37 1694.299 1389.37 1688.261 1396.5 1679.492 C 1404.62 1670.898 1410.45 1660.873 1414 1649.419 C 1421.69 1620.516 1419.35 1592.526 1407 1565.448 C 1403.98 1574.9 1397.48 1579.927 1387.5 1580.529 C 1378.56 1580.456 1372.06 1576.483 1368 1568.61 C 1363.4 1555.67 1367.23 1546.154 1379.5 1540.062 C 1384.2 1539.873 1388.87 1539.353 1393.5 1538.504 C 1388.69 1531.874 1383.02 1526.068 1376.5 1521.075 C 1375.17 1520.41 1373.83 1520.416 1372.5 1521.092 C 1352.61 1534.405 1333.27 1548.485 1314.5 1563.333 C 1308.1 1568.09 1301.44 1572.448 1294.5 1576.417 C 1293.54 1580.151 1293.21 1583.982 1293.5 1587.921 C 1292.2 1573.896 1292.54 1559.895 1294.5 1545.917 C 1294.34 1547.618 1294.51 1549.287 1295 1550.915 C 1314.26 1536.794 1333.42 1522.545 1352.5 1508.175 C 1337.08 1502.149 1321.08 1499.716 1304.5 1500.875 C 1307.42 1493.073 1311.09 1485.718 1315.5 1478.829 Z"/>
    <path style="opacity: 1; fill: rgb(177, 244, 255);" d="M 1304.5,1500.5 C 1321.08,1499.41 1337.08,1501.91 1352.5,1508C 1333.42,1522.29 1314.26,1536.46 1295,1550.5C 1294.51,1548.87 1294.34,1547.2 1294.5,1545.5C 1295.79,1530.02 1299.12,1515.02 1304.5,1500.5 Z"/>
    <path style="opacity: 1; fill: rgb(0, 220, 255);" d="M 551.5,1529.5 C 551.891,1536.92 551.391,1544.25 550,1551.5C 547.782,1555.35 544.615,1556.35 540.5,1554.5C 531.386,1542.94 519.386,1536.61 504.5,1535.5C 503.069,1535.12 502.236,1534.12 502,1532.5C 501.434,1523.15 501.601,1513.82 502.5,1504.5C 510.693,1501.5 518.693,1502 526.5,1506C 536.29,1512.29 544.624,1520.12 551.5,1529.5 Z"/>
    <path style="opacity: 1; fill: rgb(0, 163, 219);" d="M 502.5,1504.5 C 501.601,1513.82 501.434,1523.15 502,1532.5C 502.236,1534.12 503.069,1535.12 504.5,1535.5C 501.914,1538.01 501.914,1540.51 504.5,1543C 515.2,1543.85 524.2,1548.18 531.5,1556C 525.271,1554.07 518.937,1554.07 512.5,1556C 507.253,1557.21 505.586,1560.21 507.5,1565C 510.419,1565.55 513.086,1564.88 515.5,1563C 519.167,1562.33 522.833,1562.33 526.5,1563C 530.326,1565.18 534.326,1566.85 538.5,1568C 530.006,1579.32 522.006,1590.99 514.5,1603C 510.671,1603.76 507.338,1602.76 504.5,1600C 486.928,1580.95 479.094,1558.45 481,1532.5C 483.848,1519.82 491.014,1510.49 502.5,1504.5 Z"/>
    <path style="opacity: 1; fill: rgb(0, 220, 255);" d="M 1262.5,1528.5 C 1258.45,1524.09 1255.12,1519.09 1252.5,1513.5C 1256.75,1511.13 1261.25,1509.13 1266,1507.5C 1264.76,1514.42 1263.59,1521.42 1262.5,1528.5 Z"/>
    <path style="opacity: 1; fill: rgb(0, 163, 219);" d="M 1252.5,1513.5 C 1255.12,1519.09 1258.45,1524.09 1262.5,1528.5C 1260.65,1539.37 1259.48,1550.37 1259,1561.5C 1248.7,1550.2 1238.03,1539.2 1227,1528.5C 1226.33,1527.83 1226.33,1527.17 1227,1526.5C 1235.16,1521.5 1243.66,1517.17 1252.5,1513.5 Z"/>
    <path style="opacity:1" fill="#fdfdfd" d="M 1396.5,1679.5 C 1396.57,1679.06 1396.4,1678.73 1396,1678.5C 1381.48,1684.82 1367.65,1683.66 1354.5,1675C 1349.63,1669.96 1344.63,1665.13 1339.5,1660.5C 1336.84,1645.67 1328.17,1636.51 1313.5,1633C 1308.9,1631.88 1304.23,1631.38 1299.5,1631.5C 1296.41,1617 1294.41,1602.33 1293.5,1587.5C 1293.21,1583.56 1293.54,1579.73 1294.5,1576C 1301.44,1572.06 1308.1,1567.73 1314.5,1563C 1333.27,1548.23 1352.61,1534.23 1372.5,1521C 1373.83,1520.33 1375.17,1520.33 1376.5,1521C 1383.02,1526.02 1388.69,1531.85 1393.5,1538.5C 1388.87,1539.33 1384.2,1539.83 1379.5,1540C 1367.23,1546.04 1363.4,1555.54 1368,1568.5C 1372.06,1576.39 1378.56,1580.39 1387.5,1580.5C 1397.48,1579.94 1403.98,1574.94 1407,1565.5C 1419.35,1592.63 1421.69,1620.63 1414,1649.5C 1410.45,1660.94 1404.62,1670.94 1396.5,1679.5 Z"/>
    <path style="opacity:1" fill="#5b5b5a" d="M 1030.5,1525.5 C 1071.72,1539.78 1104.39,1565.11 1128.5,1601.5C 1151.71,1639.7 1160.38,1681.03 1154.5,1725.5C 1141.64,1792.02 1104.31,1839.02 1042.5,1866.5C 1034.82,1868.89 1027.15,1871.39 1019.5,1874C 1009.66,1875.64 999.995,1877.47 990.5,1879.5C 975.401,1874.12 961.734,1866.46 949.5,1856.5C 979.506,1861.19 1008.51,1857.69 1036.5,1846C 1042.34,1843.92 1047.67,1841.08 1052.5,1837.5C 1099.53,1810.85 1126.69,1770.51 1134,1716.5C 1134.67,1704.5 1134.67,1692.5 1134,1680.5C 1133.82,1677.45 1133.32,1674.45 1132.5,1671.5C 1125.33,1678.41 1116.99,1680.25 1107.5,1677C 1096.53,1669.76 1093.36,1659.92 1098,1647.5C 1103.88,1638.82 1112.04,1635.48 1122.5,1637.5C 1120.9,1632.3 1118.74,1627.3 1116,1622.5C 1113.42,1621.86 1110.75,1621.53 1108,1621.5C 1080.06,1623.7 1052.22,1626.87 1024.5,1631C 980.811,1638.39 937.144,1645.56 893.5,1652.5C 888.167,1652.83 882.833,1653.17 877.5,1653.5C 878.59,1645.79 880.59,1638.46 883.5,1631.5C 891.056,1631.14 898.389,1630.14 905.5,1628.5C 961.097,1619.62 1016.76,1611.29 1072.5,1603.5C 1082.17,1602.58 1091.84,1601.58 1101.5,1600.5C 1090.01,1585.68 1076.35,1573.34 1060.5,1563.5C 1039.36,1549.51 1016.03,1541.34 990.5,1539C 980.506,1538.5 970.506,1538.33 960.5,1538.5C 982.586,1527.2 1005.92,1522.86 1030.5,1525.5 Z"/>
    <path style="opacity: 1; fill: rgb(177, 244, 255);" d="M 1030.5,1525.5 C 1064.35,1529.93 1093.69,1543.76 1118.5,1567C 1171.16,1621.67 1190.33,1686.5 1176,1761.5C 1165.65,1808.81 1140.15,1845.31 1099.5,1871C 1070.74,1886.55 1040.41,1891.05 1008.5,1884.5C 1016.59,1881.51 1024.59,1878.01 1032.5,1874C 1036.51,1872.19 1039.84,1869.69 1042.5,1866.5C 1104.31,1839.02 1141.64,1792.02 1154.5,1725.5C 1160.74,1726.46 1165.24,1724.13 1168,1718.5C 1174.26,1699.73 1173.93,1681.06 1167,1662.5C 1159.9,1643.62 1150.23,1626.28 1138,1610.5C 1134.92,1607.25 1131.75,1604.25 1128.5,1601.5C 1104.39,1565.11 1071.72,1539.78 1030.5,1525.5 Z"/>
    <path style="opacity: 1; fill: rgb(227, 251, 255);" d="M 1058.164 1561.91 C 1075.61 1572.247 1090.644 1585.204 1103.291 1600.762 C 1092.658 1601.888 1082.015 1602.928 1071.372 1603.886 C 1066.133 1600.829 1060.993 1597.499 1055.963 1593.907 C 1051.978 1590.107 1048.863 1585.73 1046.607 1580.786 C 1044.505 1571.143 1048.357 1564.851 1058.164 1561.91 Z"/>
    <path style="opacity: 1; fill: rgb(177, 244, 255);" d="M 960.5,1538.5 C 970.506,1538.33 980.506,1538.5 990.5,1539C 1016.03,1541.34 1039.36,1549.51 1060.5,1563.5C 1051.59,1566.31 1048.09,1572.31 1050,1581.5C 1052.05,1586.21 1054.88,1590.38 1058.5,1594C 1063.07,1597.42 1067.74,1600.59 1072.5,1603.5C 1016.76,1611.29 961.097,1619.62 905.5,1628.5C 899.268,1629.06 893.268,1628.23 887.5,1626C 886.748,1625.33 886.414,1624.5 886.5,1623.5C 897.543,1593.92 915.543,1569.42 940.5,1550C 946.737,1545.38 953.403,1541.55 960.5,1538.5 Z"/>
    <path style="opacity: 1; fill: rgb(0, 163, 219);" d="M 885.5,1540.5 C 819.57,1581.72 789.404,1641.39 795,1719.5C 806.189,1790.34 844.689,1839.84 910.5,1868C 916.73,1873.74 923.064,1879.24 929.5,1884.5C 895.831,1879.08 867.331,1864.08 844,1839.5C 816.614,1804.05 799.614,1764.05 793,1719.5C 785.254,1645.96 811.087,1587.8 870.5,1545C 875.003,1541.74 880.003,1540.24 885.5,1540.5 Z"/>
    <path style="opacity: 1; fill: rgb(0, 220, 255);" d="M 885.5,1540.5 C 880.003,1540.24 875.003,1541.74 870.5,1545C 811.087,1587.8 785.254,1645.96 793,1719.5C 799.614,1764.05 816.614,1804.05 844,1839.5C 867.331,1864.08 895.831,1879.08 929.5,1884.5C 991.121,1929.21 1055.45,1933.38 1122.5,1897C 1169.47,1865.29 1198.64,1821.46 1210,1765.5C 1211.59,1756.87 1212.93,1748.2 1214,1739.5C 1216.6,1748.14 1220.43,1756.14 1225.5,1763.5C 1228.9,1768.41 1232.9,1772.91 1237.5,1777C 1251.91,1787.07 1263.08,1799.9 1271,1815.5C 1276.41,1824.03 1284.08,1829.03 1294,1830.5C 1300.28,1829.8 1305.78,1827.47 1310.5,1823.5C 1337.26,1821.58 1352.76,1807.25 1357,1780.5C 1362.55,1783.86 1368.39,1786.53 1374.5,1788.5C 1376.41,1807.48 1378.08,1826.48 1379.5,1845.5C 1307.61,1861.15 1235.94,1877.65 1164.5,1895C 1162.95,1896.21 1161.78,1897.71 1161,1899.5C 1160.67,1904.17 1160.83,1908.84 1161.5,1913.5C 1158.27,1919 1156.11,1925 1155,1931.5C 1151.86,1953.42 1149.53,1975.42 1148,1997.5C 1143.2,2013.36 1139.04,2029.36 1135.5,2045.5C 1094.51,2052.46 1053.18,2057.96 1011.5,2062C 945.221,2068.58 878.888,2074.41 812.5,2079.5C 800.325,2074.41 788.658,2068.24 777.5,2061C 761.658,2050.25 745.992,2039.25 730.5,2028C 700.244,1999.97 675.411,1967.81 656,1931.5C 643.325,1908.79 632.992,1885.12 625,1860.5C 615.677,1812.94 609.844,1764.94 607.5,1716.5C 610.816,1642.71 639.816,1581.21 694.5,1532C 711.167,1518 727.833,1504 744.5,1490C 753.4,1484.73 762.067,1479.23 770.5,1473.5C 833.683,1462.95 897.349,1458.78 961.5,1461C 1005.86,1460.3 1049.53,1465.3 1092.5,1476C 1136.02,1488.92 1174.69,1510.26 1208.5,1540C 1225.97,1556.13 1241.97,1573.47 1256.5,1592C 1233.46,1594.69 1212.79,1603.19 1194.5,1617.5C 1173.04,1568.21 1138.38,1531.38 1090.5,1507C 1039.14,1483.88 988.472,1485.22 938.5,1511C 930.82,1515.51 923.487,1520.51 916.5,1526C 905.9,1530.3 895.566,1535.13 885.5,1540.5 Z"/>
    <path style="opacity: 1; fill: rgb(0, 163, 219);" d="M 551.5,1529.5 C 555.853,1532.85 559.52,1536.85 562.5,1541.5C 556.149,1548.02 549.983,1554.68 544,1561.5C 542.807,1559.11 541.64,1556.78 540.5,1554.5C 544.615,1556.35 547.782,1555.35 550,1551.5C 551.391,1544.25 551.891,1536.92 551.5,1529.5 Z"/>
    <path style="opacity: 1; fill: rgb(0, 163, 219);" d="M 869.5,1577.5 C 870.043,1577.56 870.376,1577.89 870.5,1578.5C 859.982,1596.04 851.982,1614.71 846.5,1634.5C 840.179,1635.99 833.845,1636.32 827.5,1635.5C 837.267,1613.07 851.267,1593.74 869.5,1577.5 Z"/>
    <path style="opacity: 1; fill: rgb(227, 251, 255);" d="M 1128.5,1601.5 C 1131.75,1604.25 1134.92,1607.25 1138,1610.5C 1150.23,1626.28 1159.9,1643.62 1167,1662.5C 1173.93,1681.06 1174.26,1699.73 1168,1718.5C 1165.24,1724.13 1160.74,1726.46 1154.5,1725.5C 1160.38,1681.03 1151.71,1639.7 1128.5,1601.5 Z"/>
    <path style="opacity:1" fill="#fefefe" d="M 1052.5,1837.5 C 1023.58,1848.73 993.58,1853.89 962.5,1853C 954.251,1852.1 946.251,1850.27 938.5,1847.5C 900.544,1812.24 879.044,1768.58 874,1716.5C 873.284,1700.82 873.45,1685.15 874.5,1669.5C 880.561,1663.43 886.894,1657.77 893.5,1652.5C 937.144,1645.56 980.811,1638.39 1024.5,1631C 1052.22,1626.87 1080.06,1623.7 1108,1621.5C 1110.75,1621.53 1113.42,1621.86 1116,1622.5C 1118.74,1627.3 1120.9,1632.3 1122.5,1637.5C 1112.04,1635.48 1103.88,1638.82 1098,1647.5C 1093.36,1659.92 1096.53,1669.76 1107.5,1677C 1116.99,1680.25 1125.33,1678.41 1132.5,1671.5C 1133.32,1674.45 1133.82,1677.45 1134,1680.5C 1134.67,1692.5 1134.67,1704.5 1134,1716.5C 1126.69,1770.51 1099.53,1810.85 1052.5,1837.5 Z"/>
    <path style="opacity:1" fill="#b5a894" d="M 886.5,1623.5 C 886.414,1624.5 886.748,1625.33 887.5,1626C 893.268,1628.23 899.268,1629.06 905.5,1628.5C 898.389,1630.14 891.056,1631.14 883.5,1631.5C 883.733,1628.46 884.733,1625.79 886.5,1623.5 Z"/>
    <path style="opacity: 1; fill: rgb(0, 220, 255);" d="M 1257.5,1642.5 C 1246.72,1651.33 1242.56,1662.66 1245,1676.5C 1229.69,1685.82 1219.69,1699.15 1215,1716.5C 1214.59,1706.49 1214.09,1696.49 1213.5,1686.5C 1218.21,1671.92 1225.87,1659.09 1236.5,1648C 1242.81,1642.72 1249.81,1640.88 1257.5,1642.5 Z"/>
    <path style="opacity:1" fill="#e2d9cf" d="M 1495.5 1643.5 C 1494.25 1677.77 1483.75 1708.77 1464 1736.5 C 1437.3 1766.12 1406.8 1770.62 1372.5 1750 C 1379.87 1740.33 1382.2 1729.49 1379.5 1717.5 C 1412.387 1701.985 1431.979 1676.268 1438.269 1640.359 C 1438.179 1630.759 1438.374 1599.269 1436.5 1590.5 C 1439.71 1594.23 1443.71 1595.73 1448.5 1595 C 1452.42 1591.32 1454.92 1586.82 1456 1581.5 C 1461.46 1555.26 1458.79 1529.92 1448 1505.5 C 1441.09 1492.69 1434.43 1479.69 1428 1466.5 C 1424.75 1462.63 1420.58 1460.47 1415.5 1460 C 1410.17 1459.33 1404.83 1459.33 1399.5 1460 C 1391.79 1469.16 1391.63 1478.66 1399 1488.5 C 1405.67 1497.17 1412.33 1505.83 1419 1514.5 C 1423.51 1521.86 1425.84 1529.86 1426 1538.5 C 1426.5 1543.82 1426.67 1549.16 1426.5 1554.5 C 1411.45 1518.6 1385.12 1495.1 1347.5 1484 C 1337 1481.19 1326.33 1479.35 1315.5 1478.5 C 1325.84 1458.33 1341.84 1444.83 1363.5 1438 C 1380 1435.37 1395.67 1438.04 1410.5 1446 C 1427.87 1456.36 1442.37 1469.86 1454 1486.5 C 1458.62 1492.73 1460.295 1493.639 1465.986 1504.448 C 1476.619 1524.641 1484.62 1541.389 1489.493 1568.753 C 1492.728 1583.145 1494.735 1597.727 1495.5 1612.5 C 1495.5 1640.17 1495.5 1641.83 1495.5 1643.5 Z"/>
    <path style="opacity:1" fill="#d3d3d3" d="M 893.5,1652.5 C 886.894,1657.77 880.561,1663.43 874.5,1669.5C 874.858,1664.01 875.858,1658.68 877.5,1653.5C 882.833,1653.17 888.167,1652.83 893.5,1652.5 Z"/>
    <path style="opacity:1" fill="#d8d8d8" d="M 1339.5,1660.5 C 1344.63,1665.13 1349.63,1669.96 1354.5,1675C 1367.65,1683.66 1381.48,1684.82 1396,1678.5C 1396.4,1678.73 1396.57,1679.06 1396.5,1679.5C 1389.37,1688.24 1380.37,1694.24 1369.5,1697.5C 1360.76,1687.93 1350.93,1679.6 1340,1672.5C 1339.5,1668.51 1339.33,1664.51 1339.5,1660.5 Z"/>
    <path style="opacity:1" fill="#626261" d="M 832.5,1657.5 C 835.625,1656.52 838.958,1656.19 842.5,1656.5C 842.737,1657.79 842.404,1658.79 841.5,1659.5C 839.012,1657.61 836.012,1656.95 832.5,1657.5 Z"/>
    <path style="opacity: 1; fill: rgb(201, 201, 201);" d="M 832.5,1657.5 C 836.012,1656.95 839.012,1657.61 841.5,1659.5C 835.428,1702.01 839.928,1743.35 855,1783.5C 860.471,1796.1 866.137,1808.43 872,1820.5C 829.517,1782.82 810.851,1735.49 816,1678.5C 816.846,1671.73 818.179,1665.06 820,1658.5C 824.066,1657.54 828.233,1657.2 832.5,1657.5 Z"/>
    <path style="opacity:1" fill="#d5b69a" d="M 1287.5,1743.5 C 1277.48,1746.52 1268.98,1744.19 1262,1736.5C 1254.72,1725.93 1250.22,1714.26 1248.5,1701.5C 1250.16,1699.24 1252.33,1697.58 1255,1696.5C 1262.05,1702.54 1269.88,1707.37 1278.5,1711C 1300.51,1717.17 1318.51,1711.34 1332.5,1693.5C 1338.77,1697.6 1344.6,1702.26 1350,1707.5C 1355.36,1713.07 1358.53,1719.74 1359.5,1727.5C 1359.3,1735.27 1355.3,1738.94 1347.5,1738.5C 1333.88,1736.72 1320.21,1736.22 1306.5,1737C 1299.83,1738.28 1293.5,1740.44 1287.5,1743.5 Z"/>
    <path style="opacity:1" fill="#1f1e1c" d="M 513.5,1727.5 C 519.101,1726.06 522.434,1728.06 523.5,1733.5C 521.912,1739.7 521.079,1746.03 521,1752.5C 517.74,1757.29 514.073,1757.62 510,1753.5C 507.336,1744.26 508.503,1735.6 513.5,1727.5 Z"/>
    <path style="opacity:1" fill="#ac937c" d="M 1248.5,1701.5 C 1250.22,1714.26 1254.72,1725.93 1262,1736.5C 1268.98,1744.19 1277.48,1746.52 1287.5,1743.5C 1282.35,1747.8 1277.02,1751.97 1271.5,1756C 1252.36,1761.01 1240.53,1753.84 1236,1734.5C 1234.17,1721.14 1238.34,1710.14 1248.5,1701.5 Z"/>
    <path style="opacity: 1;" fill="#1f1e1c" d="M 538.5,1752.5 C 542.287,1751.81 545.454,1752.81 548,1755.5C 549.114,1761.46 550.614,1767.29 552.5,1773C 551.938,1778.55 548.938,1780.55 543.5,1779C 539.187,1773.11 536.854,1766.44 536.5,1759C 536.338,1756.5 537.005,1754.33 538.5,1752.5 Z"/>
    <path style="opacity: 1; fill: rgb(0, 163, 219);" d="M 1257.5,1642.5 C 1249.81,1640.88 1242.81,1642.72 1236.5,1648C 1225.87,1659.09 1218.21,1671.92 1213.5,1686.5C 1211.32,1675.12 1209.15,1663.78 1207,1652.5C 1222.51,1635.83 1241.68,1627.16 1264.5,1626.5C 1265.28,1630.15 1265.45,1633.81 1265,1637.5C 1262.56,1639.3 1260.06,1640.97 1257.5,1642.5 Z"/>
    <path style="opacity: 1;" fill="#f8f8f8" d="M 1320.5,1757.5 C 1325.13,1758.23 1329.8,1758.56 1334.5,1758.5C 1336.54,1769.09 1335.71,1779.42 1332,1789.5C 1330.33,1791.83 1328.67,1794.17 1327,1796.5C 1325.91,1783.28 1323.74,1770.28 1320.5,1757.5 Z"/>
    <path style="opacity:1" fill="#fbfbfb" d="M 1307.5 1758.5 C 1309.6 1758.2 1311.6 1758.53 1313.5 1759.5 C 1318.12 1773.1 1320.12 1787.1 1319.5 1801.5 C 1314.3 1802.24 1309.63 1801.08 1305.5 1798 C 1297.09 1790.52 1292.09 1781.19 1290.5 1770 C 1295.27 1764.71 1300.94 1760.87 1307.5 1758.5 Z"/>
    <path style="opacity: 1; fill: rgb(0, 163, 219);" d="M 1225.5,1763.5 C 1237.58,1775.59 1252.25,1781.09 1269.5,1780C 1273.45,1795.89 1282.11,1808.56 1295.5,1818C 1300.19,1820.73 1305.19,1822.56 1310.5,1823.5C 1305.78,1827.47 1300.28,1829.8 1294,1830.5C 1284.08,1829.03 1276.41,1824.03 1271,1815.5C 1263.08,1799.9 1251.91,1787.07 1237.5,1777C 1232.9,1772.91 1228.9,1768.41 1225.5,1763.5 Z"/>
    <path style="opacity:1" fill="#1e1d1b" d="M 514.5,1781.5 C 522.016,1781.19 525.182,1784.86 524,1792.5C 525.344,1795.67 526.51,1798.84 527.5,1802C 526.774,1807.21 523.774,1809.21 518.5,1808C 511.146,1799.81 509.813,1790.97 514.5,1781.5 Z"/>
    <path style="opacity:1" fill="#d5d5d5" d="M 1052.5 1837.5 C 1047.67 1841.08 1042.34 1843.92 1036.5 1846 C 1008.51 1857.69 979.506 1861.19 949.5 1856.5 C 945.518 1853.85 941.851 1850.85 938.5 1847.5 C 946.251 1850.27 954.251 1852.1 962.5 1853 C 993.58 1853.89 1023.58 1848.73 1052.5 1837.5 Z"/>
    <path style="opacity: 1; fill: rgb(94, 232, 255);" d="M 1042.5,1866.5 C 1039.84,1869.69 1036.51,1872.19 1032.5,1874C 1024.59,1878.01 1016.59,1881.51 1008.5,1884.5C 1002.32,1883.45 996.317,1881.79 990.5,1879.5C 999.995,1877.47 1009.66,1875.64 1019.5,1874C 1027.15,1871.39 1034.82,1868.89 1042.5,1866.5 Z"/>
    <path style="opacity: 1; fill: rgb(0, 163, 219);" d="M 1161.5,1913.5 C 1169.65,1954.65 1176.98,1995.98 1183.5,2037.5C 1167.53,2040.38 1151.53,2043.05 1135.5,2045.5C 1139.04,2029.36 1143.2,2013.36 1148,1997.5C 1149.53,1975.42 1151.86,1953.42 1155,1931.5C 1156.11,1925 1158.27,1919 1161.5,1913.5 Z"/>
  </g>
  <g transform="matrix(1, 0, 0, 1, -1089.617554, -1158.991821)" style="">
    <title>Drops</title>
    <path style="opacity:1" fill="#1f1f1c" d="M 706.5,1635.5 C 714.419,1635.78 717.419,1639.94 715.5,1648C 715.602,1671.76 710.435,1694.26 700,1715.5C 692.65,1727.29 682.816,1730.12 670.5,1724C 661.555,1715.92 659.055,1706.08 663,1694.5C 673.129,1671.56 687.629,1651.89 706.5,1635.5 Z"/>
    <path style="opacity:1" fill="#75807f" d="M 701.5,1664.5 C 701.784,1662.59 701.451,1660.92 700.5,1659.5C 700.783,1658.71 701.283,1658.04 702,1657.5C 702.796,1660.04 702.629,1662.37 701.5,1664.5 Z"/>
    <path style="opacity:1" fill="#def5f6" d="M 700.5,1659.5 C 701.451,1660.92 701.784,1662.59 701.5,1664.5C 700.01,1679.46 696.177,1693.79 690,1707.5C 686.066,1715.22 681.066,1716.22 675,1710.5C 673.857,1704.2 674.69,1698.2 677.5,1692.5C 683.945,1680.6 691.611,1669.6 700.5,1659.5 Z"/>
    <path style="opacity:1" fill="#1f1e1c" d="M 703.5 1750.5 C 707.287 1749.81 710.454 1750.81 713 1753.5 C 714 1777.5 714.333 1801.5 714 1825.5 C 713.201 1838.27 707.034 1847.1 695.5 1852 C 685.063 1853.89 678.563 1849.72 676 1839.5 C 675.217 1810.51 682.217 1783.51 697 1758.5 C 699.001 1755.67 701.167 1753 703.5 1750.5 Z"/>
    <path style="opacity:1" fill="#d9f0f1" d="M 699.5,1781.5 C 700.167,1784.17 700.833,1786.83 701.5,1789.5C 702.975,1801.86 702.809,1814.19 701,1826.5C 700.097,1830.81 698.263,1834.64 695.5,1838C 692.286,1840.4 689.786,1839.9 688,1836.5C 687.29,1828.07 687.956,1819.74 690,1811.5C 692.667,1801.33 695.833,1791.33 699.5,1781.5 Z"/>
    <path style="opacity:1" fill="#828e8e" d="M 701.5,1789.5 C 700.833,1786.83 700.167,1784.17 699.5,1781.5C 699.783,1780.71 700.283,1780.04 701,1779.5C 701.498,1782.82 701.665,1786.15 701.5,1789.5 Z"/>
  </g>
  <g transform="matrix(1, 0, 0, 1, -1089.617554, -1158.991821)">
    <title>Package</title>
    <path style="opacity:1" fill="#cbbba7" d="M 2121.5,1748.5 C 2132.83,1748.5 2144.17,1748.5 2155.5,1748.5C 2203.16,1973.16 2250.83,2197.82 2298.5,2422.5C 2256.82,2432.23 2215.15,2442.06 2173.5,2452C 2168.84,2453.07 2164.68,2452.24 2161,2449.5C 2113.3,2242.94 2066.13,2036.27 2019.5,1829.5C 2023.54,1829.88 2027.21,1828.88 2030.5,1826.5C 2034.01,1828.62 2037.68,1828.95 2041.5,1827.5C 2046.93,1830.93 2052.43,1831.26 2058,1828.5C 2054.07,1802.2 2048.57,1776.2 2041.5,1750.5C 2068.35,1750.59 2095.01,1749.92 2121.5,1748.5 Z"/>
    <path style="opacity:1" fill="#a39686" d="M 1284.5,2443.5 C 1283.47,2419.33 1282.47,2395.17 1281.5,2371C 1278.59,2347.13 1283.76,2325.29 1297,2305.5C 1309.03,2293.13 1320.7,2280.47 1332,2267.5C 1336.89,2261.04 1340.73,2254.04 1343.5,2246.5C 1364.62,2233.3 1370.12,2215.3 1360,2192.5C 1349.83,2178.16 1336.33,2168.32 1319.5,2163C 1306.77,2158.57 1293.77,2155.23 1280.5,2153C 1278.59,2141.76 1272.09,2135.26 1261,2133.5C 1258.39,2133.37 1256.06,2134.04 1254,2135.5C 1249.02,2131.29 1243.68,2130.63 1238,2133.5C 1233.11,2130.66 1227.94,2129.99 1222.5,2131.5C 1208.68,2058.22 1195.84,1984.89 1184,1911.5C 1270.91,1891.19 1357.91,1871.19 1445,1851.5C 1447.03,1852.52 1448.36,1854.19 1449,1856.5C 1454.16,1868.33 1457.5,1880.66 1459,1893.5C 1459.31,1905.19 1459.97,1916.86 1461,1928.5C 1461.9,1932.81 1463.74,1936.64 1466.5,1940C 1468.17,1940.67 1469.83,1940.67 1471.5,1940C 1473.4,1938.18 1475.07,1936.18 1476.5,1934C 1482.09,1934.59 1486.59,1932.76 1490,1928.5C 1497.57,1934.54 1504.07,1933.54 1509.5,1925.5C 1516.96,1928.8 1523.8,1927.8 1530,1922.5C 1539.39,1929.24 1546.73,1927.57 1552,1917.5C 1552.72,1916.94 1553.56,1916.61 1554.5,1916.5C 1556.48,1918.13 1558.65,1919.46 1561,1920.5C 1563.17,1920.17 1565.01,1919.17 1566.5,1917.5C 1571.71,1919.46 1576.21,1918.46 1580,1914.5C 1582.92,1916.39 1586.08,1916.89 1589.5,1916C 1591.01,1914.53 1591.67,1912.69 1591.5,1910.5C 1588.67,1880.2 1586.34,1849.87 1584.5,1819.5C 1592.57,1818.26 1600.57,1816.59 1608.5,1814.5C 1610.04,1814.67 1611.54,1815.01 1613,1815.5C 1617.65,1813.19 1622.48,1811.35 1627.5,1810C 1693.51,1795 1759.51,1780 1825.5,1765C 1827.26,1764.2 1828.93,1764.37 1830.5,1765.5C 1882.38,2004.79 1934.21,2244.13 1986,2483.5C 1986.67,2485.5 1986.67,2487.5 1986,2489.5C 1764.26,2539.43 1542.43,2589.1 1320.5,2638.5C 1308.5,2573.51 1296.5,2508.51 1284.5,2443.5 Z"/>
    <path style="opacity: 1; fill: rgb(184, 58, 61);" d="M 2010.5,1751.5 C 2018.17,1751.5 2025.83,1751.5 2033.5,1751.5C 2037.82,1769.79 2041.99,1788.12 2046,1806.5C 2047.33,1811.46 2047.99,1816.46 2048,1821.5C 2045.94,1819.93 2043.78,1818.6 2041.5,1817.5C 2039.62,1817.88 2038.12,1818.88 2037,1820.5C 2032.19,1817.87 2027.36,1817.87 2022.5,1820.5C 2020.11,1817.76 2017.11,1816.93 2013.5,1818C 2013.03,1820.12 2011.87,1821.62 2010,1822.5C 2006.66,1820.64 2003.5,1818.64 2000.5,1816.5C 1998.27,1817.22 1996.44,1818.55 1995,1820.5C 1990.03,1798.11 1987.2,1775.45 1986.5,1752.5C 1994.68,1752.83 2002.68,1752.49 2010.5,1751.5 Z"/>
    <path style="opacity:1" fill="#252422" d="M 2019.5,1776.5 C 2024.18,1776.01 2026.34,1778.01 2026,1782.5C 2021.89,1786.48 2017.05,1788.64 2011.5,1789C 2009.81,1787.09 2009.31,1784.92 2010,1782.5C 2013.48,1780.85 2016.65,1778.85 2019.5,1776.5 Z"/>
    <path style="opacity:1" fill="#20201e" d="M 1539.5,1854.5 C 1544.98,1854.48 1546.65,1856.98 1544.5,1862C 1529.79,1871.35 1514.79,1880.19 1499.5,1888.5C 1498.56,1888.39 1497.72,1888.06 1497,1887.5C 1496.06,1884.65 1496.56,1882.15 1498.5,1880C 1512.57,1871.98 1526.23,1863.48 1539.5,1854.5 Z"/>
    <path style="opacity:1" fill="#cbbba7" d="M 1963.5 1753.5 C 1968.17 1753.5 1972.83 1753.5 1977.5 1753.5 C 1977.19 1756.71 1977.52 1759.71 1978.5 1762.5 C 1979.63 1787.59 1983.46 1812.26 1990 1836.5 C 1991.47 1838.32 1993.3 1838.82 1995.5 1838 C 1997.36 1834.45 1999.36 1830.95 2001.5 1827.5 C 2002.91 1828.62 2004.41 1829.62 2006 1830.5 C 2054.27 2039.47 2102.1 2248.47 2149.5 2457.5 C 2102.21 2467.63 2054.87 2477.63 2007.5 2487.5 C 1955.36 2244.43 1903.03 2001.43 1850.5 1758.5 C 1865.43 1756.75 1880.43 1755.58 1895.5 1755 C 1918.17 1754.37 1940.83 1753.87 1963.5 1753.5 Z"/>
    <path style="opacity:1" fill="#6b645a" d="M 1963.5,1753.5 C 1968.31,1752.51 1973.31,1752.18 1978.5,1752.5C 1978.5,1755.83 1978.5,1759.17 1978.5,1762.5C 1977.52,1759.71 1977.19,1756.71 1977.5,1753.5C 1972.83,1753.5 1968.17,1753.5 1963.5,1753.5 Z"/>
    <path style="opacity:1" fill="#252523" d="M 2013.5,1798.5 C 2020.2,1797.53 2022.54,1800.2 2020.5,1806.5C 2012.36,1808.7 2010.03,1806.03 2013.5,1798.5 Z"/>
    <path style="opacity: 1; fill: rgb(123, 37, 39);" d="M 1572.5 1822.5 C 1573.5 1822.5 1574.5 1822.5 1575.5 1822.5 C 1577.54 1850.22 1579.71 1877.88 1582 1905.5 C 1579.87 1902.54 1577.21 1901.88 1574 1903.5 C 1573.96 1905.94 1573.13 1907.94 1571.5 1909.5 C 1568.02 1906.88 1564.52 1906.88 1561 1909.5 C 1555.9 1906.59 1551.07 1906.92 1546.5 1910.5 C 1544.55 1913.45 1542.38 1916.11 1540 1918.5 C 1536.3 1916.12 1532.64 1913.79 1529 1911.5 C 1528.17 1911.67 1527.33 1911.83 1526.5 1912 C 1524.14 1918.01 1519.8 1920.01 1513.5 1918 C 1511.21 1914.62 1508.21 1913.78 1504.5 1915.5 C 1503.17 1918.83 1501.34 1921.83 1499 1924.5 C 1492.23 1917.53 1486.06 1917.86 1480.5 1925.5 C 1476.29 1921.39 1472.79 1922.05 1470 1927.5 C 1468.93 1914.53 1467.93 1901.53 1467 1888.5 C 1464.58 1875.03 1460.92 1862.03 1456 1849.5 C 1494.89 1840.33 1533.73 1831.33 1572.5 1822.5 Z"/>
    <path style="opacity:1" fill="#21211f" d="M 1524.5,1886.5 C 1529.5,1885.67 1531.67,1887.67 1531,1892.5C 1525.22,1897.33 1518.72,1899.66 1511.5,1899.5C 1510.52,1897.9 1510.35,1896.24 1511,1894.5C 1515.48,1891.68 1519.98,1889.01 1524.5,1886.5 Z"/>
    <path style="opacity: 1;" fill="#83796c" d="M 1343.5,2246.5 C 1340.73,2254.04 1336.89,2261.04 1332,2267.5C 1320.7,2280.47 1309.03,2293.13 1297,2305.5C 1283.76,2325.29 1278.59,2347.13 1281.5,2371C 1282.47,2395.17 1283.47,2419.33 1284.5,2443.5C 1275.08,2397.21 1266.08,2350.71 1257.5,2304C 1264.65,2299.56 1269.82,2293.39 1273,2285.5C 1274.68,2279.69 1276.18,2273.86 1277.5,2268C 1300.79,2264.51 1322.79,2257.35 1343.5,2246.5 Z"/>
  </g>
  <g transform="matrix(1.098445, 0, 0, 1.098445, 230.695923, 452.122223)" style="mix-blend-mode: darken;">
    <title>NPM</title>
    <g transform="matrix(0.979796, -0.2, 0.2, 0.979796, -0.000002, 0.000002)">
      <path d="M -143.483 470.198 L 397.641 468.19 L 395.29 648.644 L 127.63 649.085 L 127.006 678.732 L 6.195 680.253 L 8.652 649.508 L -141.239 649.303 L -143.912 469.141 M -112.373 620.967 L -53.948 618.925 L -54.034 531.103 L -23.847 529.282 L -24.173 618.692 L 6.88 619.756 L 8.134 499.843 L -112.407 499.017 L -111.314 617.788 M 36.528 648.86 L 96.157 650.883 L 98.796 620.204 L 156.096 620.612 L 156.385 499.095 L 38.925 499.583 L 36.155 648.702 M 95.945 529.526 L 125.843 531.321 L 127.329 591.301 L 96.06 590.372 L 96.125 530.889 M 186.292 620.399 L 246.258 621.397 L 248.901 531.072 L 276.527 531.058 L 277.123 621.186 L 308.605 621.231 L 309.069 528.662 L 339.041 528.396 L 335.726 618.543 L 367.259 620.161 L 366.955 501.001 L 185.558 501.259 L 185.492 621.329" style="fill: rgb(123, 37, 39); stroke-linecap: square; stroke-linejoin: round; stroke-width: 11.8349px; stroke: rgb(29, 29, 27);"/>
    </g>
  </g>
  <g style="mix-blend-mode: soft-light; opacity: 0.81;">
    <title>Signs</title>
    <path style="" fill="#20201d" d="M 642.785 1259.626 C 645.205 1259.503 647.61 1259.626 650.008 1259.987 C 653.338 1269.023 656.112 1278.298 658.315 1287.797 C 659.76 1296.133 656.748 1302.15 649.286 1305.856 C 649.048 1306.578 648.802 1307.3 648.564 1308.023 C 649.792 1316.077 651.475 1324.023 653.62 1331.86 C 656.509 1331.001 659.399 1330.401 662.288 1330.054 C 664.217 1331.983 664.217 1333.904 662.288 1335.833 C 655.209 1338.108 647.986 1339.914 640.618 1341.251 C 637.432 1339.907 636.956 1337.856 639.173 1335.111 C 642.005 1334.049 644.894 1333.204 647.841 1332.582 C 645.082 1324.095 643.16 1315.427 642.062 1306.578 C 634.651 1306.679 629.718 1303.306 627.254 1296.465 C 625.434 1286.771 623.383 1277.143 621.115 1267.571 C 621.367 1265.982 622.09 1264.66 623.282 1263.599 C 629.848 1262.103 636.349 1260.781 642.785 1259.626 Z M 687.57 1231.454 C 689.607 1231.151 691.175 1231.873 692.265 1233.621 C 697.264 1254.273 702.082 1274.983 706.712 1295.743 C 709.652 1307.033 713.264 1318.107 717.547 1328.971 C 718.031 1330.415 718.031 1331.86 717.547 1333.305 C 683.597 1340.391 649.763 1348.214 616.058 1356.781 C 613.674 1357.503 611.269 1357.742 608.835 1357.503 C 602.362 1342.262 597.429 1326.486 594.027 1310.19 C 590.87 1293.886 588.096 1277.518 585.72 1261.07 C 585.85 1260.312 586.088 1259.59 586.442 1258.903 C 620.175 1249.73 653.887 1240.585 687.57 1231.454 Z M 592.221 1263.237 C 595.84 1293.012 602.586 1322.022 612.446 1350.28 C 645.205 1343.172 677.949 1335.833 710.685 1328.248 C 707.557 1320.18 704.784 1311.996 702.378 1303.689 C 697.488 1282.004 692.554 1260.334 687.57 1238.678 C 686.609 1238.678 685.641 1238.678 684.681 1238.678 C 653.988 1247.071 623.166 1255.263 592.221 1263.237 Z M 628.338 1268.294 C 629.884 1278.277 631.928 1288.151 634.478 1297.91 C 636.139 1299.044 637.945 1299.889 639.895 1300.438 C 650.268 1301.37 654.241 1296.675 651.814 1286.352 C 650.001 1279.815 648.072 1273.314 646.035 1266.849 C 644.562 1266.185 642.994 1265.939 641.34 1266.127 C 637.158 1267.196 632.824 1267.918 628.338 1268.294 Z">
      <title>Goblet</title>
    </path>
    <path style="opacity: 1;" fill="#201f1d" d="M 525.043 1296.465 C 529.485 1296.624 531.652 1299.03 531.544 1303.689 C 540.183 1302.807 547.883 1305.097 554.659 1310.551 C 558.314 1313.159 559.881 1316.655 559.354 1321.025 C 558.993 1321.386 558.632 1321.747 558.271 1322.108 C 550.917 1324.276 543.455 1325.843 535.878 1326.804 C 538.197 1336.086 540.97 1345.238 544.185 1354.253 C 545.146 1355.214 546.114 1355.214 547.074 1354.253 C 547.558 1351.782 548.403 1349.493 549.602 1347.391 C 554.298 1346.805 555.865 1348.85 554.298 1353.53 C 550.606 1362.531 545.304 1363.737 538.406 1357.142 C 535.271 1347.86 532.505 1338.47 530.099 1328.971 C 523.858 1329.267 517.718 1330.235 511.679 1331.86 C 509.65 1331.925 507.959 1331.203 506.623 1329.693 C 506.666 1320.346 510.639 1313 518.542 1307.662 C 521.041 1306.773 523.446 1305.69 525.765 1304.411 C 524.284 1301.847 524.046 1299.196 525.043 1296.465 Z M 570.55 1258.181 C 573.158 1258.094 574.718 1259.301 575.246 1261.793 C 580.374 1282.43 585.185 1303.14 589.693 1323.914 C 593.333 1335.782 596.945 1347.586 600.528 1359.309 C 599.928 1359.909 599.321 1360.516 598.722 1361.115 C 565.241 1367.436 532.013 1374.905 499.038 1383.508 C 496.655 1384.23 494.249 1384.468 491.815 1384.23 C 489.258 1378.964 486.968 1373.547 484.953 1367.977 C 476.711 1341.099 471.416 1313.65 469.061 1285.63 C 503.004 1276.608 536.831 1267.456 570.55 1258.181 Z M 475.923 1289.964 C 475.685 1290.687 475.439 1291.409 475.201 1292.131 C 478.769 1321.249 485.27 1349.659 494.704 1377.368 C 526.877 1369.899 559.137 1362.791 591.498 1356.059 C 592.17 1355.777 592.647 1355.3 592.943 1354.614 C 588.486 1342.435 584.752 1330.04 581.747 1317.413 C 578.214 1301.262 574.603 1285.132 570.912 1269.016 C 570.803 1266.835 569.72 1265.628 567.661 1265.404 C 537.207 1273.683 506.63 1281.867 475.923 1289.964 Z M 513.124 1323.192 C 512.582 1324.015 512.705 1324.738 513.485 1325.359 C 526.531 1322.824 539.533 1320.05 552.492 1317.052 C 545.557 1310.616 537.366 1308.333 527.932 1310.19 C 521.12 1312.306 516.18 1316.64 513.124 1323.192 Z">
      <title>Unbrella</title>
    </path>
    <path style="opacity: 1;" fill="#201f1d" d="M 451.364 1284.908 C 453.668 1284.561 455.712 1285.045 457.504 1286.352 C 463.774 1313.173 470.275 1339.9 477.007 1366.533 C 478.791 1371.647 480.72 1376.703 482.786 1381.702 C 483.465 1383.761 483.103 1385.566 481.702 1387.119 C 447.109 1394.018 412.682 1401.725 378.407 1410.234 C 376.962 1410.718 375.518 1410.718 374.073 1410.234 C 365.99 1390.081 360.095 1369.249 356.375 1347.752 C 354.389 1335.956 352.706 1324.16 351.319 1312.357 C 353.883 1310.825 356.65 1309.742 359.626 1309.106 C 390.398 1301.442 420.975 1293.374 451.364 1284.908 Z M 358.904 1315.969 C 358.665 1316.929 358.42 1317.897 358.181 1318.858 C 358.817 1323.43 359.416 1328.003 359.987 1332.582 C 363.534 1357.12 369.674 1380.958 378.407 1404.095 C 410.804 1396.048 443.31 1388.463 475.923 1381.341 C 472.868 1373.142 470.101 1364.835 467.616 1356.42 C 463.152 1336.404 458.58 1316.416 453.892 1296.465 C 453.444 1294.443 452.606 1292.752 451.364 1291.409 C 420.613 1299.579 389.798 1307.763 358.904 1315.969 Z M 439.806 1378.09 C 443.772 1377.137 445.578 1378.581 445.224 1382.424 C 444.863 1383.269 444.263 1383.869 443.418 1384.23 C 431.492 1387.17 419.458 1389.583 407.301 1391.454 C 402.136 1393.028 400.453 1391.345 402.244 1386.397 C 415.051 1384.49 427.57 1381.716 439.806 1378.09 Z M 413.079 1331.86 C 410.703 1332.033 408.536 1332.756 406.578 1334.027 C 409.063 1348.857 412.191 1363.542 415.969 1378.09 C 414.524 1382.092 412.48 1382.576 409.829 1379.535 C 406.181 1364.972 403.176 1350.287 400.8 1335.472 C 398.741 1335.775 396.812 1336.498 395.021 1337.639 C 394.782 1337.155 394.537 1336.678 394.298 1336.194 C 396.242 1330.387 397.686 1324.485 398.633 1318.497 C 399.593 1318.013 400.561 1318.013 401.522 1318.497 C 405.025 1323.322 408.883 1327.779 413.079 1331.86 Z M 413.079 1331.86 C 415.333 1326.883 416.655 1321.588 417.052 1315.969 C 417.305 1314.755 418.027 1314.033 419.219 1313.802 C 423.647 1317.991 427.859 1322.448 431.86 1327.165 C 430.329 1328.024 428.639 1328.508 426.804 1328.61 C 426.371 1329.375 426.132 1330.22 426.082 1331.138 C 428.343 1344.494 431.109 1357.734 434.389 1370.867 C 435.096 1373.157 434.735 1375.201 433.305 1377.007 C 430.921 1377.758 429.354 1376.92 428.61 1374.478 C 425.46 1360.06 422.448 1345.614 419.58 1331.138 C 417.804 1331.723 416.12 1332.445 414.524 1333.305 C 413.65 1333.124 413.166 1332.647 413.079 1331.86 Z">
      <title>Arrows</title>
    </path>
  </g>
  <g transform="matrix(1, 0, 0, 1, -1089.617554, -1158.991821)">
    <title>Shirt</title>
    <path style="opacity:1" fill="#cbcbcb" d="M 1195.5,2104.5 C 1195.5,2105.5 1195.5,2106.5 1195.5,2107.5C 1182.32,2107.17 1169.32,2107.5 1156.5,2108.5C 1152.17,2108.5 1147.83,2108.5 1143.5,2108.5C 1143.84,2105.48 1145.01,2102.82 1147,2100.5C 1154.18,2095.66 1159.51,2089.32 1163,2081.5C 1164.36,2074.92 1163.2,2068.92 1159.5,2063.5C 1166.33,2061.83 1173.33,2060.33 1180.5,2059C 1182.9,2058.19 1185.24,2058.35 1187.5,2059.5C 1190.35,2074.46 1193.02,2089.46 1195.5,2104.5 Z"/>
    <path style="opacity:1" fill="#fdfdfd" d="M 1159.5,2063.5 C 1163.2,2068.92 1164.36,2074.92 1163,2081.5C 1159.51,2089.32 1154.18,2095.66 1147,2100.5C 1145.01,2102.82 1143.84,2105.48 1143.5,2108.5C 1126.95,2109.99 1110.28,2111.83 1093.5,2114C 1055.35,2120.86 1017.01,2126.53 978.5,2131C 940.132,2133.2 901.799,2135.87 863.5,2139C 847.503,2139.5 831.503,2139.67 815.5,2139.5C 809.931,2133.17 809.098,2126.17 813,2118.5C 816.912,2113.92 821.412,2110.08 826.5,2107C 835.605,2104.09 844.605,2101.26 853.5,2098.5C 910.111,2092.67 966.777,2087.17 1023.5,2082C 1068.99,2076.74 1114.32,2070.58 1159.5,2063.5 Z"/>
    <path style="opacity:1" fill="#cbcbcb" d="M 853.5,2098.5 C 844.605,2101.26 835.605,2104.09 826.5,2107C 821.412,2110.08 816.912,2113.92 813,2118.5C 809.098,2126.17 809.931,2133.17 815.5,2139.5C 740.691,2138.27 666.524,2131.27 593,2118.5C 592.529,2116.75 591.862,2115.09 591,2113.5C 589.701,2103.84 588.534,2094.17 587.5,2084.5C 611.53,2087.34 635.53,2090.51 659.5,2094C 685.119,2096.83 710.786,2099.16 736.5,2101C 775.544,2101.98 814.544,2101.15 853.5,2098.5 Z"/>
    <path style="opacity:1" fill="#7a7a79" d="M 1195.5,2104.5 C 1196.43,2105.57 1196.77,2106.9 1196.5,2108.5C 1183.17,2108.5 1169.83,2108.5 1156.5,2108.5C 1169.32,2107.5 1182.32,2107.17 1195.5,2107.5C 1195.5,2106.5 1195.5,2105.5 1195.5,2104.5 Z"/>
    <path style="opacity:1" fill="#fefefe" d="M 1158.5,2129.5 C 1163.17,2129.5 1167.83,2129.5 1172.5,2129.5C 1172.5,2133.17 1172.5,2136.83 1172.5,2140.5C 1154.84,2139.62 1137.17,2139.46 1119.5,2140C 1110.26,2146.75 1110.26,2153.42 1119.5,2160C 1136.6,2160.02 1153.6,2160.85 1170.5,2162.5C 1171.72,2164.45 1173.38,2165.95 1175.5,2167C 1182.32,2169.83 1189.32,2172.17 1196.5,2174C 1205.94,2181.13 1209.6,2190.63 1207.5,2202.5C 1206.3,2220.49 1205.3,2238.49 1204.5,2256.5C 1189.45,2258.26 1174.45,2260.42 1159.5,2263C 1151.94,2265.63 1149.44,2270.8 1152,2278.5C 1152.66,2280.32 1153.83,2281.66 1155.5,2282.5C 1155.55,2286.81 1156.71,2290.81 1159,2294.5C 1164.98,2300.15 1170.64,2306.15 1176,2312.5C 1187.73,2332.66 1193.06,2354.33 1192,2377.5C 1191.01,2380.81 1189.51,2383.81 1187.5,2386.5C 1159.4,2392.75 1131.07,2397.92 1102.5,2402C 1084.07,2404.29 1065.57,2405.46 1047,2405.5C 971.011,2403.48 895.178,2399.14 819.5,2392.5C 816.829,2390.07 813.996,2387.73 811,2385.5C 810,2383.17 809,2380.83 808,2378.5C 807.848,2371.68 808.015,2364.84 808.5,2358C 809.362,2350.89 807.862,2344.39 804,2338.5C 797.292,2333.46 791.625,2327.46 787,2320.5C 780.81,2310.04 783.643,2303.2 795.5,2300C 806.088,2297.58 816.755,2295.58 827.5,2294C 846.433,2288.73 848.433,2279.73 833.5,2267C 823.169,2262.33 812.503,2258.67 801.5,2256C 781.697,2249.23 776.863,2236.73 787,2218.5C 789,2215.83 791,2213.17 793,2210.5C 802.47,2202.03 811.637,2193.2 820.5,2184C 824.5,2181.33 828.5,2178.67 832.5,2176C 844.6,2170.74 856.933,2166.08 869.5,2162C 870.756,2161.58 871.423,2160.75 871.5,2159.5C 913.823,2156.28 956.156,2153.11 998.5,2150C 1045.02,2142.3 1091.69,2135.63 1138.5,2130C 1145.16,2129.5 1151.83,2129.33 1158.5,2129.5 Z"/>
    <path style="opacity:1" fill="#c5c5c5" d="M 1158.5,2129.5 C 1172.33,2128.56 1186.33,2128.56 1200.5,2129.5C 1200.51,2132.54 1200.84,2135.54 1201.5,2138.5C 1201.5,2139.83 1201.5,2141.17 1201.5,2142.5C 1199.83,2142.5 1198.17,2142.5 1196.5,2142.5C 1188.47,2142.13 1180.47,2141.47 1172.5,2140.5C 1172.5,2136.83 1172.5,2133.17 1172.5,2129.5C 1167.83,2129.5 1163.17,2129.5 1158.5,2129.5 Z"/>
    <path style="opacity:1" fill="#6b6b69" d="M 1201.5,2138.5 C 1202.45,2139.92 1202.78,2141.59 1202.5,2143.5C 1200.26,2143.79 1198.26,2143.46 1196.5,2142.5C 1198.17,2142.5 1199.83,2142.5 1201.5,2142.5C 1201.5,2141.17 1201.5,2139.83 1201.5,2138.5 Z"/>
    <path style="opacity:1" fill="#cccccc" d="M 871.5,2159.5 C 871.423,2160.75 870.756,2161.58 869.5,2162C 856.933,2166.08 844.6,2170.74 832.5,2176C 828.5,2178.67 824.5,2181.33 820.5,2184C 811.637,2193.2 802.47,2202.03 793,2210.5C 791,2213.17 789,2215.83 787,2218.5C 776.863,2236.73 781.697,2249.23 801.5,2256C 812.503,2258.67 823.169,2262.33 833.5,2267C 848.433,2279.73 846.433,2288.73 827.5,2294C 816.755,2295.58 806.088,2297.58 795.5,2300C 783.643,2303.2 780.81,2310.04 787,2320.5C 791.625,2327.46 797.292,2333.46 804,2338.5C 807.862,2344.39 809.362,2350.89 808.5,2358C 808.015,2364.84 807.848,2371.68 808,2378.5C 809,2380.83 810,2383.17 811,2385.5C 813.996,2387.73 816.829,2390.07 819.5,2392.5C 792.494,2391.75 765.494,2390.59 738.5,2389C 713.874,2384.46 689.207,2380.13 664.5,2376C 647.493,2375.44 630.493,2375.61 613.5,2376.5C 613.163,2367.72 613.997,2359.05 616,2350.5C 620.53,2339.24 624.863,2327.91 629,2316.5C 632.448,2306.71 634.948,2296.71 636.5,2286.5C 658.126,2296.05 680.792,2299.88 704.5,2298C 708.292,2295.95 709.458,2292.78 708,2288.5C 707.5,2287.33 706.667,2286.5 705.5,2286C 688.946,2286.35 672.613,2284.69 656.5,2281C 646.136,2277.95 638.136,2271.95 632.5,2263C 635.117,2258.48 636.951,2253.65 638,2248.5C 640.643,2230.63 639.643,2212.96 635,2195.5C 630.409,2178.63 625.909,2161.8 621.5,2145C 704.379,2156.94 787.712,2161.77 871.5,2159.5 Z"/>
    <path style="opacity:1" fill="#c8c8c8" d="M 1240.5,2181.5 C 1238.06,2181.68 1235.9,2181.02 1234,2179.5C 1232.67,2175.5 1231.33,2171.5 1230,2167.5C 1229.51,2168.79 1229.34,2170.13 1229.5,2171.5C 1228.35,2166.02 1228.18,2160.35 1229,2154.5C 1232.04,2160.44 1236.87,2162.77 1243.5,2161.5C 1243.06,2168.26 1242.06,2174.93 1240.5,2181.5 Z"/>
    <path style="opacity:1" fill="#bfbfbf" d="M 1259.5,2163.5 C 1256.45,2163.57 1253.78,2164.57 1251.5,2166.5C 1251.34,2164.8 1251.51,2163.13 1252,2161.5C 1254.45,2160.8 1256.79,2159.8 1259,2158.5C 1259.49,2160.13 1259.66,2161.8 1259.5,2163.5 Z"/>
    <path style="opacity:1" fill="#c8c8c8" d="M 1170.5 2162.5 C 1182.85 2162.89 1195.18 2163.56 1207.5 2164.5 C 1208.64 2177.33 1208.64 2189.99 1207.5 2202.5 C 1209.6 2190.63 1205.94 2181.13 1196.5 2174 C 1189.32 2172.17 1182.32 2169.83 1175.5 2167 C 1173.38 2165.95 1171.72 2164.45 1170.5 2162.5 Z"/>
    <path style="opacity:1" fill="#fbfbfb" d="M 1259.5,2163.5 C 1259.83,2193.87 1259,2224.2 1257,2254.5C 1256.48,2262.65 1255.15,2270.65 1253,2278.5C 1251.51,2276.84 1249.68,2275.84 1247.5,2275.5C 1245.39,2274.53 1243.06,2274.2 1240.5,2274.5C 1240.83,2265.65 1240.49,2256.98 1239.5,2248.5C 1237.23,2244.5 1234.73,2244.5 1232,2248.5C 1231.33,2257.83 1231.33,2267.17 1232,2276.5C 1232.5,2277.67 1233.33,2278.5 1234.5,2279C 1233.33,2280.84 1232,2282.17 1230.5,2283C 1228.02,2279.24 1226.52,2275.07 1226,2270.5C 1225.33,2260.17 1225.33,2249.83 1226,2239.5C 1228.05,2216.89 1229.21,2194.22 1229.5,2171.5C 1229.34,2170.13 1229.51,2168.79 1230,2167.5C 1231.33,2171.5 1232.67,2175.5 1234,2179.5C 1235.9,2181.02 1238.06,2181.68 1240.5,2181.5C 1238.75,2192.77 1238.25,2204.11 1239,2215.5C 1241.59,2216.98 1243.93,2216.65 1246,2214.5C 1247.04,2198.4 1248.87,2182.4 1251.5,2166.5C 1253.78,2164.57 1256.45,2163.57 1259.5,2163.5 Z"/>
    <path style="opacity:1" fill="#60605f" d="M 1239.5,2248.5 C 1240.49,2256.98 1240.83,2265.65 1240.5,2274.5C 1243.06,2274.2 1245.39,2274.53 1247.5,2275.5C 1244.83,2275.5 1242.17,2275.5 1239.5,2275.5C 1239.5,2266.5 1239.5,2257.5 1239.5,2248.5 Z"/>
    <path style="opacity:1" fill="#21211f" d="M 667.5,2249.5 C 676.951,2249.1 686.285,2249.94 695.5,2252C 701.244,2255.13 701.911,2259.13 697.5,2264C 687.191,2263.42 676.858,2262.75 666.5,2262C 662.286,2257.36 662.619,2253.19 667.5,2249.5 Z"/>
    <path style="opacity:1" fill="#cccccc" d="M 1187.5,2386.5 C 1189.51,2383.81 1191.01,2380.81 1192,2377.5C 1193.06,2354.33 1187.73,2332.66 1176,2312.5C 1170.64,2306.15 1164.98,2300.15 1159,2294.5C 1156.71,2290.81 1155.55,2286.81 1155.5,2282.5C 1157.29,2283.72 1159.29,2284.39 1161.5,2284.5C 1176.32,2281.14 1191.32,2278.81 1206.5,2277.5C 1208.79,2296.12 1219.12,2306.79 1237.5,2309.5C 1241.29,2329.32 1244.96,2349.15 1248.5,2369C 1246.55,2370.88 1244.22,2372.22 1241.5,2373C 1223.55,2377.82 1205.55,2382.32 1187.5,2386.5 Z"/>
    <path style="opacity:1" fill="#222220" d="M 1126.5,2323.5 C 1134.74,2322.56 1137.57,2325.89 1135,2333.5C 1129.58,2336.79 1124.08,2339.96 1118.5,2343C 1110.31,2344.48 1107.48,2341.31 1110,2333.5C 1115.65,2330.27 1121.15,2326.93 1126.5,2323.5 Z"/>
    <path style="opacity:1" fill="#21211f" d="M 1170.5,2327.5 C 1178.94,2327.04 1181.44,2330.7 1178,2338.5C 1173.45,2345.1 1167.28,2347.93 1159.5,2347C 1156.17,2344.32 1155.67,2341.15 1158,2337.5C 1163.25,2335.41 1167.41,2332.08 1170.5,2327.5 Z"/>
  </g>
  <g transform="matrix(1, 0, 0, 1, -1089.617554, -1158.991821)">
    <title>Hand</title>
    <path style="opacity: 1; fill: rgb(0, 163, 219);" d="M 1297.5,2241.5 C 1301.83,2237 1306,2232.34 1310,2227.5C 1312.88,2223.21 1313.88,2218.54 1313,2213.5C 1311.83,2211 1310,2209.17 1307.5,2208C 1298.68,2203.67 1289.68,2199.84 1280.5,2196.5C 1280.5,2189.17 1280.5,2181.83 1280.5,2174.5C 1297.73,2177.3 1314.06,2182.8 1329.5,2191C 1335.43,2194.93 1339.93,2200.1 1343,2206.5C 1344.95,2213.86 1343.12,2220.03 1337.5,2225C 1325.43,2233.31 1312.09,2238.81 1297.5,2241.5 Z"/>
    <path style="opacity: 1; fill: rgb(0, 220, 255);" d="M 1280.5,2196.5 C 1289.68,2199.84 1298.68,2203.67 1307.5,2208C 1310,2209.17 1311.83,2211 1313,2213.5C 1313.88,2218.54 1312.88,2223.21 1310,2227.5C 1306,2232.34 1301.83,2237 1297.5,2241.5C 1291.96,2243.3 1286.29,2244.64 1280.5,2245.5C 1279.52,2241.37 1279.18,2237.03 1279.5,2232.5C 1279.7,2220.5 1280.03,2208.5 1280.5,2196.5 Z"/>
    <path style="opacity:1" fill="#736144" d="M 189.882 1073.508 C 189.562 1078.038 189.902 1082.378 190.882 1086.508 C 190.822 1087.048 190.492 1087.388 189.882 1087.508 C 188.572 1082.688 188.572 1078.028 189.882 1073.508 Z"/>
  </g>
  <g transform="matrix(1, 0, 0, 1, -1089.617554, -1158.991821)">
    <title>Wind</title>
    <path style="opacity:1" fill="#1f1f1d" d="M 446.5,2218.5 C 497.834,2218.33 549.168,2218.5 600.5,2219C 604.292,2221.05 605.458,2224.22 604,2228.5C 603.097,2229.7 601.931,2230.53 600.5,2231C 548.833,2231.67 497.167,2231.67 445.5,2231C 441.286,2226.36 441.619,2222.19 446.5,2218.5 Z"/>
    <path style="opacity:1" fill="#20201e" d="M 516.5,2287.5 C 543.835,2287.33 571.169,2287.5 598.5,2288C 602.292,2290.05 603.458,2293.22 602,2297.5C 601.097,2298.7 599.931,2299.53 598.5,2300C 571.5,2300.67 544.5,2300.67 517.5,2300C 513.708,2297.95 512.542,2294.78 514,2290.5C 515.045,2289.63 515.878,2288.63 516.5,2287.5 Z"/>
    <path style="opacity:1" fill="#21211f" d="M 383.5,2406.5 C 435.181,2406.47 486.848,2407.3 538.5,2409C 543.371,2412.18 543.704,2415.84 539.5,2420C 487.83,2420.45 436.163,2420.12 384.5,2419C 378.181,2415.26 377.848,2411.09 383.5,2406.5 Z"/>
  </g>
  <g transform="matrix(1, 0, 0, 1, -1089.617554, -1158.991821)">
    <title>Bottom</title>
    <path style="opacity: 1; fill: rgb(0, 163, 219);" d="M 1251.5,2540.5 C 1242.67,2527.51 1234.83,2513.84 1228,2499.5C 1223,2484.5 1218,2469.5 1213,2454.5C 1208.14,2440.31 1198.64,2430.81 1184.5,2426C 1170.6,2421.14 1156.26,2418.3 1141.5,2417.5C 1179.03,2410.13 1216.36,2401.46 1253.5,2391.5C 1263.3,2445.35 1273.3,2499.18 1283.5,2553C 1283.33,2554.17 1283.17,2555.33 1283,2556.5C 1277.14,2550.3 1270.97,2544.47 1264.5,2539C 1259.77,2536.68 1255.44,2537.18 1251.5,2540.5 Z"/>
    <path style="opacity: 1; fill: rgb(0, 163, 219);" d="M 971.5,2424.5 C 947.672,2428.8 923.672,2431.96 899.5,2434C 888.075,2435.9 876.742,2438.24 865.5,2441C 856.104,2443.44 848.271,2448.27 842,2455.5C 835.161,2481.64 841.661,2503.81 861.5,2522C 872.896,2530.39 883.396,2539.89 893,2550.5C 904.093,2564.26 915.926,2577.43 928.5,2590C 946.67,2606.63 968.004,2616.96 992.5,2621C 1039.65,2626.87 1086.99,2629.2 1134.5,2628C 1143.69,2627.26 1152.69,2625.59 1161.5,2623C 1165.01,2621.67 1166.67,2619.17 1166.5,2615.5C 1171.29,2618.45 1175.95,2621.61 1180.5,2625C 1170.61,2631.11 1160.27,2636.45 1149.5,2641C 1111.18,2653.66 1072.18,2663.66 1032.5,2671C 912.648,2691.38 806.648,2662.38 714.5,2584C 698.499,2569.77 684.999,2553.61 674,2535.5C 651.982,2491.76 642.149,2445.43 644.5,2396.5C 655.87,2396.81 667.203,2397.65 678.5,2399C 697.709,2403.31 717.042,2406.98 736.5,2410C 815.076,2413.4 893.409,2418.23 971.5,2424.5 Z"/>
    <path style="opacity: 1; fill: rgb(0, 220, 255);" d="M 1141.5,2417.5 C 1156.26,2418.3 1170.6,2421.14 1184.5,2426C 1198.64,2430.81 1208.14,2440.31 1213,2454.5C 1218,2469.5 1223,2484.5 1228,2499.5C 1234.83,2513.84 1242.67,2527.51 1251.5,2540.5C 1248.18,2544.44 1247.68,2548.77 1250,2553.5C 1253.7,2557.54 1257.7,2561.2 1262,2564.5C 1271.66,2575.83 1281.66,2586.83 1292,2597.5C 1295.16,2613.12 1297.99,2628.78 1300.5,2644.5C 1300.5,2646.17 1300.5,2647.83 1300.5,2649.5C 1294.15,2650.1 1288.15,2648.93 1282.5,2646C 1274.82,2641.16 1266.82,2636.82 1258.5,2633C 1245.46,2628.49 1232.46,2623.82 1219.5,2619C 1209.2,2613.02 1198.53,2607.85 1187.5,2603.5C 1179.86,2598.68 1172.19,2593.84 1164.5,2589C 1152.88,2588.07 1148.71,2593.23 1152,2604.5C 1156.63,2608.55 1161.47,2612.22 1166.5,2615.5C 1166.67,2619.17 1165.01,2621.67 1161.5,2623C 1152.69,2625.59 1143.69,2627.26 1134.5,2628C 1086.99,2629.2 1039.65,2626.87 992.5,2621C 968.004,2616.96 946.67,2606.63 928.5,2590C 915.926,2577.43 904.093,2564.26 893,2550.5C 883.396,2539.89 872.896,2530.39 861.5,2522C 841.661,2503.81 835.161,2481.64 842,2455.5C 848.271,2448.27 856.104,2443.44 865.5,2441C 876.742,2438.24 888.075,2435.9 899.5,2434C 923.672,2431.96 947.672,2428.8 971.5,2424.5C 1004.82,2426 1038.15,2426.5 1071.5,2426C 1094.99,2424.24 1118.32,2421.41 1141.5,2417.5 Z"/>
    <path style="opacity:1" fill="#1f1f1c" d="M 694.5,2498.5 C 701.986,2496.82 705.819,2499.82 706,2507.5C 707.584,2511.67 709.918,2515.34 713,2518.5C 713.5,2524.67 710.667,2527.5 704.5,2527C 695.024,2519.4 691.691,2509.9 694.5,2498.5 Z"/>
    <path style="opacity:1" fill="#201f1c" d="M 739.5 2508.5 C 742.97 2507.87 745.804 2508.87 748 2511.5 C 748.284 2515.53 749.118 2519.36 750.5 2523 C 749.938 2528.55 746.938 2530.55 741.5 2529 C 734.573 2522.47 733.906 2515.64 739.5 2508.5 Z"/>
    <path style="opacity:1" fill="#201f1c" d="M 723.5 2539.5 C 729.858 2539.69 733.024 2543.03 733 2549.5 C 734.29 2551.79 735.957 2553.79 738 2555.5 C 738.962 2562.79 735.795 2565.62 728.5 2564 C 721.347 2558.53 718.513 2551.36 720 2542.5 C 721.145 2541.36 722.312 2540.36 723.5 2539.5 Z"/>
    <path style="opacity: 1; fill: rgb(0, 163, 219);" d="M 1187.5,2603.5 C 1198.53,2607.85 1209.2,2613.02 1219.5,2619C 1232.46,2623.82 1245.46,2628.49 1258.5,2633C 1266.82,2636.82 1274.82,2641.16 1282.5,2646C 1288.15,2648.93 1294.15,2650.1 1300.5,2649.5C 1300.5,2647.83 1300.5,2646.17 1300.5,2644.5C 1301.25,2648.81 1302.42,2653.14 1304,2657.5C 1306.13,2660.32 1308.97,2661.65 1312.5,2661.5C 1317.9,2660.75 1323.23,2659.75 1328.5,2658.5C 1329.46,2663.74 1327.79,2667.91 1323.5,2671C 1306.04,2675.56 1289.71,2672.89 1274.5,2663C 1245.32,2643.3 1216.32,2623.47 1187.5,2603.5 Z"/>
    <path style="opacity: 1; fill: rgb(0, 163, 219);" d="M 711.5,2610.5 C 722.517,2617.33 733.184,2624.83 743.5,2633C 751.574,2637.07 758.741,2641.91 765,2647.5C 750.795,2664.04 733.961,2677.21 714.5,2687C 698.404,2694.23 681.737,2696.06 664.5,2692.5C 664.73,2677.64 668.897,2663.98 677,2651.5C 687.207,2636.79 698.707,2623.12 711.5,2610.5 Z"/>
  </g>
  <path d="M 1414.808 877.896 A 1180.412 1180.412 0 0 1 234.396 2058.308 A 1180.412 1180.412 0 0 1 -946.016 877.896 A 1180.412 1180.412 0 0 1 234.396 -302.516 A 1180.412 1180.412 0 0 1 1414.808 877.896 Z" style="paint-order: fill; fill-rule: nonzero; fill: none; stroke: rgb(29, 29, 27); stroke-width: 29px;">
    <title>Border</title>
  </path>
</svg>